<svg xmlns="http://www.w3.org/2000/svg" xmlns:xlink="http://www.w3.org/1999/xlink" width="500" zoomAndPan="magnify" viewBox="0 0 375 374.999991" height="500" preserveAspectRatio="xMidYMid meet" version="1.0"><defs><g/><clipPath id="b025d01eca"><rect x="0" width="375" y="0" height="241"/></clipPath></defs><rect x="-37.5" width="450" fill="#ffffff" y="-37.499999" height="449.999989" fill-opacity="1"/><rect x="-37.5" width="450" fill="#ffffff" y="-37.499999" height="449.999989" fill-opacity="1"/><g transform="matrix(1, 0, 0, 1, 0, 66)"><g clip-path="url(#b025d01eca)"><g fill="#2a3d74" fill-opacity="1"><g transform="translate(15.10184, 141.088425)"><g><path d="M 9.515625 -14.234375 C 11.179688 -19.703125 13.820312 -23.710938 17.4375 -26.265625 C 21.0625 -28.816406 25.203125 -30.316406 29.859375 -30.765625 C 34.523438 -31.210938 39.253906 -30.929688 44.046875 -29.921875 C 48.835938 -28.910156 53.203125 -27.597656 57.140625 -25.984375 C 62.410156 -23.828125 66.285156 -21.6875 68.765625 -19.5625 L 70.765625 -24.46875 C 72.992188 -29.925781 74.023438 -34.222656 73.859375 -37.359375 C 73.691406 -40.503906 72.046875 -42.773438 68.921875 -44.171875 C 65.316406 -45.753906 62.5625 -45.785156 60.65625 -44.265625 C 58.75 -42.753906 56.84375 -40.765625 54.9375 -38.296875 C 53.71875 -36.671875 51.800781 -35.804688 49.1875 -35.703125 C 46.570312 -35.597656 44.015625 -36.054688 41.515625 -37.078125 C 38.546875 -38.296875 36.070312 -40.117188 34.09375 -42.546875 C 32.125 -44.972656 31.78125 -47.492188 33.0625 -50.109375 C 35.164062 -54.398438 39.914062 -56.625 47.3125 -56.78125 C 54.707031 -56.9375 63.472656 -54.894531 73.609375 -50.65625 C 80.984375 -47.644531 87.285156 -43.976562 92.515625 -39.65625 C 97.742188 -35.332031 101.242188 -30.34375 103.015625 -24.6875 C 104.796875 -19.039062 104.269531 -12.757812 101.4375 -5.84375 C 99.3125 -0.90625 97.328125 3.8125 95.484375 8.3125 C 93.640625 12.820312 92.128906 16.515625 90.953125 19.390625 C 89.066406 23.992188 89.164062 26.890625 91.25 28.078125 C 92.363281 28.648438 93.507812 28.726562 94.6875 28.3125 C 95.863281 27.894531 96.894531 27.976562 97.78125 28.5625 C 98.5625 29.113281 98.695312 30.007812 98.1875 31.25 C 97.6875 32.5 96.429688 33.582031 94.421875 34.5 C 92.421875 35.414062 89.613281 35.773438 86 35.578125 C 82.382812 35.390625 77.863281 34.128906 72.4375 31.796875 C 67.207031 29.546875 63.03125 26.554688 59.90625 22.828125 C 56.789062 19.097656 55.710938 14.957031 56.671875 10.40625 C 52.734375 13.738281 48.015625 15.566406 42.515625 15.890625 C 37.015625 16.210938 31.675781 15.3125 26.5 13.1875 C 19.976562 10.519531 15.109375 6.679688 11.890625 1.671875 C 8.679688 -3.335938 7.890625 -8.640625 9.515625 -14.234375 Z M 44.71875 -9.578125 C 42.976562 -6.160156 42.394531 -2.960938 42.96875 0.015625 C 43.539062 2.992188 45.425781 5.082031 48.625 6.28125 C 52.007812 7.570312 54.742188 7.046875 56.828125 4.703125 C 58.910156 2.359375 60.765625 -0.660156 62.390625 -4.359375 L 65.765625 -12.234375 C 65.359375 -12.609375 64.601562 -13.21875 63.5 -14.0625 C 62.394531 -14.914062 61.125 -15.632812 59.6875 -16.21875 C 57.476562 -17.125 55.007812 -17.320312 52.28125 -16.8125 C 49.5625 -16.300781 47.039062 -13.890625 44.71875 -9.578125 Z M 44.71875 -9.578125 "/></g></g></g><g fill="#2a3d74" fill-opacity="1"><g transform="translate(131.548013, 184.974899)"><g><path d="M 4.40625 -102.390625 C 3.257812 -102.492188 2.429688 -103.039062 1.921875 -104.03125 C 1.410156 -105.019531 1.257812 -106.082031 1.46875 -107.21875 C 1.6875 -108.351562 2.3125 -109.175781 3.34375 -109.6875 C 6.769531 -111.738281 11.28125 -113.320312 16.875 -114.4375 C 22.476562 -115.550781 27.875 -116.097656 33.0625 -116.078125 C 37.195312 -116.054688 40.535156 -115.703125 43.078125 -115.015625 C 45.617188 -114.328125 47.476562 -112.890625 48.65625 -110.703125 C 49.832031 -108.523438 50.40625 -105.050781 50.375 -100.28125 L 50.234375 -71.390625 C 54.078125 -72.816406 58.4375 -73.78125 63.3125 -74.28125 C 71.382812 -74.851562 78.414062 -73.597656 84.40625 -70.515625 C 90.40625 -67.429688 95.050781 -62.925781 98.34375 -57 C 101.632812 -51.082031 103.257812 -44.03125 103.21875 -35.84375 C 103.15625 -23.3125 99.632812 -13.773438 92.65625 -7.234375 C 85.675781 -0.691406 76.019531 2.546875 63.6875 2.484375 C 63.488281 2.484375 63.257812 2.457031 63 2.40625 C 62.738281 2.351562 62.503906 2.328125 62.296875 2.328125 C 58.773438 2.097656 55.847656 1.507812 53.515625 0.5625 C 51.191406 -0.375 49.175781 -1.363281 47.46875 -2.40625 C 45.769531 -3.457031 44.144531 -4.296875 42.59375 -4.921875 C 41.050781 -5.546875 39.242188 -5.65625 37.171875 -5.25 C 34.054688 -4.75 31.304688 -4.0625 28.921875 -3.1875 C 26.535156 -2.320312 23.863281 -1.5625 20.90625 -0.90625 C 17.945312 -0.25 13.929688 0.0664062 8.859375 0.046875 C 7.304688 0.0351562 6.25 -0.847656 5.6875 -2.609375 C 5.125 -4.367188 5.519531 -5.71875 6.875 -6.65625 C 7.382812 -6.957031 7.898438 -7.257812 8.421875 -7.5625 C 8.953125 -7.875 9.472656 -8.1875 9.984375 -8.5 C 12.785156 -9.820312 14.195312 -12.039062 14.21875 -15.15625 L 14.640625 -99.6875 C 14.648438 -100.925781 14.316406 -101.753906 13.640625 -102.171875 C 12.972656 -102.597656 12.066406 -102.816406 10.921875 -102.828125 C 9.890625 -102.828125 8.800781 -102.75 7.65625 -102.59375 C 6.519531 -102.445312 5.4375 -102.378906 4.40625 -102.390625 Z M 54.25 -64.21875 C 51.863281 -63.914062 50.273438 -62.882812 49.484375 -61.125 C 48.703125 -59.375 48.484375 -56.453125 48.828125 -52.359375 C 49.171875 -48.265625 49.785156 -42.382812 50.671875 -34.71875 C 52.066406 -23.519531 53.710938 -15.84375 55.609375 -11.6875 C 57.503906 -7.53125 60.210938 -5.757812 63.734375 -6.375 C 66.117188 -6.757812 67.726562 -7.960938 68.5625 -9.984375 C 69.40625 -12.003906 69.679688 -15.191406 69.390625 -19.546875 C 69.109375 -23.898438 68.3125 -29.863281 67 -37.4375 C 65.800781 -45 64.664062 -50.773438 63.59375 -54.765625 C 62.53125 -58.753906 61.300781 -61.425781 59.90625 -62.78125 C 58.519531 -64.144531 56.632812 -64.625 54.25 -64.21875 Z M 54.25 -64.21875 "/></g></g></g><g fill="#2a3d74" fill-opacity="1"><g transform="translate(258.979709, 181.80067)"><g><path d="M -34.671875 -96.4375 C -35.773438 -96.101562 -36.75 -96.296875 -37.59375 -97.015625 C -38.4375 -97.734375 -38.972656 -98.660156 -39.203125 -99.796875 C -39.441406 -100.929688 -39.179688 -101.929688 -38.421875 -102.796875 C -36.023438 -105.992188 -32.445312 -109.164062 -27.6875 -112.3125 C -22.925781 -115.46875 -18.140625 -118.015625 -13.328125 -119.953125 C -9.492188 -121.503906 -6.269531 -122.441406 -3.65625 -122.765625 C -1.050781 -123.085938 1.207031 -122.457031 3.125 -120.875 C 5.050781 -119.300781 6.90625 -116.300781 8.6875 -111.875 L 19.484375 -85.09375 C 22.492188 -87.863281 26.160156 -90.40625 30.484375 -92.71875 C 37.742188 -96.300781 44.726562 -97.800781 51.4375 -97.21875 C 58.15625 -96.632812 64.15625 -94.222656 69.4375 -89.984375 C 74.726562 -85.742188 78.90625 -79.828125 81.96875 -72.234375 C 86.65625 -60.609375 87.007812 -50.445312 83.03125 -41.75 C 79.050781 -33.0625 71.335938 -26.410156 59.890625 -21.796875 C 59.710938 -21.722656 59.488281 -21.660156 59.21875 -21.609375 C 58.957031 -21.554688 58.734375 -21.492188 58.546875 -21.421875 C 55.203125 -20.296875 52.273438 -19.726562 49.765625 -19.71875 C 47.253906 -19.71875 45.007812 -19.875 43.03125 -20.1875 C 41.0625 -20.507812 39.238281 -20.671875 37.5625 -20.671875 C 35.894531 -20.671875 34.179688 -20.09375 32.421875 -18.9375 C 29.734375 -17.28125 27.445312 -15.597656 25.5625 -13.890625 C 23.675781 -12.191406 21.488281 -10.476562 19 -8.75 C 16.519531 -7.019531 12.925781 -5.207031 8.21875 -3.3125 C 6.78125 -2.726562 5.46875 -3.144531 4.28125 -4.5625 C 3.09375 -5.976562 2.945312 -7.378906 3.84375 -8.765625 C 4.207031 -9.234375 4.570312 -9.707031 4.9375 -10.1875 C 5.300781 -10.675781 5.664062 -11.160156 6.03125 -11.640625 C 8.113281 -13.929688 8.578125 -16.519531 7.421875 -19.40625 L -24.1875 -97.8125 C -24.644531 -98.957031 -25.257812 -99.597656 -26.03125 -99.734375 C -26.8125 -99.878906 -27.734375 -99.738281 -28.796875 -99.3125 C -29.753906 -98.925781 -30.734375 -98.445312 -31.734375 -97.875 C -32.734375 -97.300781 -33.710938 -96.820312 -34.671875 -96.4375 Z M 25.90625 -79.96875 C 23.8125 -78.78125 22.734375 -77.222656 22.671875 -75.296875 C 22.609375 -73.378906 23.507812 -70.59375 25.375 -66.9375 C 27.238281 -63.28125 30.035156 -58.070312 33.765625 -51.3125 C 39.296875 -41.476562 43.722656 -34.992188 47.046875 -31.859375 C 50.367188 -28.734375 53.546875 -28.117188 56.578125 -30.015625 C 58.640625 -31.285156 59.675781 -33.007812 59.6875 -35.1875 C 59.695312 -37.375 58.75 -40.425781 56.84375 -44.34375 C 54.9375 -48.269531 51.941406 -53.488281 47.859375 -60 C 43.878906 -66.550781 40.640625 -71.472656 38.140625 -74.765625 C 35.640625 -78.054688 33.488281 -80.066406 31.6875 -80.796875 C 29.882812 -81.523438 27.957031 -81.25 25.90625 -79.96875 Z M 25.90625 -79.96875 "/></g></g></g></g></g></svg>